<?xml version="1.0" encoding="UTF-8" standalone="no"?>
<!DOCTYPE svg PUBLIC "-//W3C//DTD SVG 1.1//EN" "http://www.w3.org/Graphics/SVG/1.1/DTD/svg11.dtd">
<!-- Generert med Microsoft Visio, SVG Export freehand.svg Side-1 -->
<svg xmlns="http://www.w3.org/2000/svg" xmlns:xlink="http://www.w3.org/1999/xlink" xmlns:ev="http://www.w3.org/2001/xml-events"
		xmlns:v="http://schemas.microsoft.com/visio/2003/SVGExtensions/" width="0.173276in" height="0.194084in"
		viewBox="0 0 12.4758 13.9741" xml:space="preserve" color-interpolation-filters="sRGB" class="st2">
	<v:documentProperties v:langID="1044" v:metric="true" v:viewMarkup="false"/>

	<style type="text/css">
	<![CDATA[
		.st1 {stroke:#000000;stroke-linecap:round;stroke-linejoin:round;stroke-width:0.75;fill:none}
	]]>
	</style>

	<g v:mID="0" v:index="1" v:groupContext="foregroundPage">
		<title>Side-1</title>
		<v:pageProperties v:drawingScale="0.0393701" v:pageScale="0.0393701" v:drawingUnits="24" v:shadowOffsetX="8.50394"
				v:shadowOffsetY="-8.50394"/>
		<g id="shape2-1" v:mID="2" v:groupContext="shape" transform="translate(11.6257,-3.96228) rotate(56.2997)">
			<title>Ark.2</title>
			<path d="M0 10.8 C0.07 10.95 0.1 11.14 0.13 11.31 C0.28 12.08 0.55 12.35 0.96 12.92 C1.24 13.33 1.59 13.88 2.01 13.96
						 C2.32 14.02 2.66 13.84 2.83 13.6 C3.15 13.16 2.88 12.51 2.62 11.85 C2.47 11.46 2.33 11.07 2.41 10.77 C2.51
						 10.38 2.98 10.15 3.36 10.24 C3.99 10.38 4.33 11.4 4.87 12.08 C5.7 13.13 7.01 13.38 8.06 12.71 C8.68 12.31
						 9.21 11.58 9.53 10.88 C9.88 10.1 9.96 9.36 9.67 8.6 C9.49 8.12 9.15 7.62 8.71 7.36 C8.26 7.09 7.71 7.06
						 7.32 7.31 C6.66 7.74 6.47 8.98 6.84 9.79 C7.68 11.61 11.41 11.19 12.24 10.8" class="st1"/>
		</g>
	</g>
</svg>
