<?xml version="1.0" encoding="iso-8859-1"?>
<!-- Generator: Adobe Illustrator 19.0.0, SVG Export Plug-In . SVG Version: 6.00 Build 0)  -->
<svg version="1.1" id="Layer_1" xmlns="http://www.w3.org/2000/svg" xmlns:xlink="http://www.w3.org/1999/xlink" x="0px" y="0px"
	 viewBox="0 0 511.999 511.999" style="enable-background:new 0 0 511.999 511.999;" xml:space="preserve">
<g>
	<g>
		<path d="M510.45,205.162l-11.048-11.048l-53.907,53.907H424.87l22.235-22.235l-11.048-11.048l-33.283,33.284h-43.716
			c-1.824-22.823-11.074-43.583-25.326-59.86l30.766-30.766h47.502v-15.625h-31.877l13.542-13.542h78.752v-15.625H409.29
			l32.443-32.443l-11.049-11.049l-31.186,31.186V39.684h-15.625v76.238l-14.584,14.584V99.06h-15.625v47.071l-31.078,31.078
			c-16.319-13.803-36.945-22.662-59.549-24.241v-43.885l33.65-33.649l-11.048-11.048l-22.601,22.601V67.803l55.318-55.318
			L307.307,1.437l-44.269,44.269V0.1h-15.625v44.563L204.186,1.437l-11.048,11.048l54.276,54.276v20.224l-22.601-22.601
			l-11.048,11.048l33.649,33.649v43.961c-22.196,1.774-42.439,10.573-58.507,24.165l-32.119-32.119V99.06h-15.625v30.404
			l-13.542-13.542V38.643h-15.625v61.654L81.328,69.632L70.28,80.68l30.881,30.881H39.076v15.625h77.711l14.584,14.584H97.41v15.625
			h49.585l30.766,30.766c-14.252,16.277-23.502,37.038-25.326,59.86h-45.493l-32.546-32.546l-11.049,11.049l21.498,21.498H65.692
			l-54.644-54.645L0,204.426l43.596,43.595H0.533v15.625H43.9L0,307.547l11.048,11.049l54.949-54.95h20.624L62.609,287.66
			l11.048,11.049l35.061-35.062h43.639c1.579,22.603,10.437,43.23,24.241,59.549l-32.119,32.119H98.452v15.625h30.403
			l-13.542,13.542H38.034v15.625h61.653l-30.665,30.665l11.049,11.048l30.881-30.881v62.085h15.625v-77.711l14.584-14.584v33.96
			h15.625v-49.585l30.766-30.766c16.277,14.252,37.038,23.501,59.86,25.326v45.627l-32.608,32.608l11.048,11.049l21.56-21.56v19.183
			l-54.276,54.276l11.048,11.049l43.228-43.228v42.896h15.625v-43.938l44.269,44.269l11.048-11.049l-55.318-55.318v-20.224
			l23.643,23.643l11.048-11.049l-34.691-34.691v-43.468c23.233-1.623,44.377-10.934,60.902-25.403l30.766,30.766v47.502h15.625
			v-31.877l13.542,13.542v78.752h15.625v-63.127l32.443,32.443l11.049-11.048l-31.186-31.186h60.612v-15.625h-76.238l-14.584-14.584
			h31.445v-15.625h-47.071l-31.078-31.078c13.803-16.319,22.662-36.945,24.241-59.549h43.334l33.588,33.588l11.048-11.048
			l-22.54-22.54h19.151l55.685,55.686l11.048-11.048l-44.637-44.637h46.187v-15.626h-44.408L510.45,205.162z M255.746,344.377
			c-48.535,0-88.022-39.487-88.022-88.022s39.487-88.022,88.022-88.022s88.022,39.487,88.022,88.022
			S304.281,344.377,255.746,344.377z"/>
	</g>
</g>
<g>
	<g>
		<path d="M255.746,192.291c-35.325,0-64.064,28.739-64.064,64.064s28.739,64.064,64.064,64.064s64.064-28.739,64.064-64.064
			C319.809,221.03,291.07,192.291,255.746,192.291z M255.746,304.793c-26.709,0-48.438-21.729-48.438-48.438
			s21.729-48.438,48.438-48.438c26.709,0,48.438,21.729,48.438,48.438S282.455,304.793,255.746,304.793z"/>
	</g>
</g>
<g>
</g>
<g>
</g>
<g>
</g>
<g>
</g>
<g>
</g>
<g>
</g>
<g>
</g>
<g>
</g>
<g>
</g>
<g>
</g>
<g>
</g>
<g>
</g>
<g>
</g>
<g>
</g>
<g>
</g>
</svg>
